<svg width="200" height="56" viewBox="0 0 200 56" fill="none" xmlns="http://www.w3.org/2000/svg">
<path d="M1.85024 41.9263H19.2861H36.722" stroke="#7EB693" stroke-width="2" stroke-miterlimit="10"/>
<path d="M5.78955 48.3579H19.2861H32.7827" stroke="#7EB693" stroke-width="2" stroke-miterlimit="10"/>
<path d="M18.7862 1.35791V8.35791V15.3579" stroke="#7EB693" stroke-width="2" stroke-miterlimit="10"/>
<path d="M18.8608 14.6421V41.0737" stroke="#7EB693" stroke-width="2" stroke-miterlimit="10"/>
<path d="M29.9177 4.41064L18.8608 15.4949" stroke="#7EB693" stroke-width="2" stroke-miterlimit="10"/>
<path d="M34.1703 8.67383L18.8608 24.0212" stroke="#7EB693" stroke-width="2" stroke-miterlimit="10"/>
<path d="M36.722 15.4946L18.8608 32.5473" stroke="#7EB693" stroke-width="2" stroke-miterlimit="10"/>
<path d="M37.5725 23.1685L18.8608 41.9264" stroke="#7EB693" stroke-width="2" stroke-miterlimit="10"/>
<path d="M37.5726 31.6948L27.3662 41.9264" stroke="#7EB693" stroke-width="2" stroke-miterlimit="10"/>
<path d="M0.999748 31.6948L11.2062 41.9264" stroke="#7EB693" stroke-width="2" stroke-miterlimit="10"/>
<path d="M8.65449 4.41064L18.8608 15.4949" stroke="#7EB693" stroke-width="2" stroke-miterlimit="10"/>
<path d="M4.40184 8.67383L18.8608 24.0212" stroke="#7EB693" stroke-width="2" stroke-miterlimit="10"/>
<path d="M1.85024 14.6421L18.8608 32.5474" stroke="#7EB693" stroke-width="2" stroke-miterlimit="10"/>
<path d="M0.999748 22.3159L18.8609 41.0738" stroke="#7EB693" stroke-width="2" stroke-miterlimit="10"/>
<path d="M19.2861 54.7158C9.18786 54.7158 0.999748 46.2635 0.999748 35.8351V19.8806C0.999748 9.45419 9.18786 1 19.2861 1C29.3863 1 37.5726 9.45419 37.5726 19.8806V35.8351C37.5744 46.2635 29.3863 54.7158 19.2861 54.7158Z" stroke="#7EB693" stroke-width="2" stroke-miterlimit="10"/>
</svg>
